<?xml version="1.0" encoding="UTF-8"?>
<svg width="600" height="180" version="1.1" xmlns="http://www.w3.org/2000/svg">
 <path d="m590 119.78c0-14.242-3.2194-25.679-11.38-33.663-6.4356-6.4767-16.312-10.789-30.049-12.732l-18.463-2.5907c-5.3646-0.64451-8.5871-2.5875-10.517-4.5305-2.36-2.3758-3.0077-5.1782-3.0077-7.1212 0-6.6915 5.3709-14.242 18.463-14.242 6.6536 0 19.319-0.64767 28.981 9.061l23.613-23.736c-13.092-13.162-29.622-18.34-51.52-18.34-34.775 0-55.813 20.501-55.813 48.553 0 13.165 3.4342 23.518 10.521 30.857 6.8684 7.1212 17.174 11.652 30.693 13.595l18.463 2.5875c4.9381 0.65082 8.1543 2.161 10.088 4.104 2.1484 2.3727 3.0045 5.3962 3.0045 9.061 0 8.8494-7.0833 13.813-21.894 13.813-12.236 0-26.188-2.8055-34.13-10.789l-24.043 24.169c15.456 15.967 34.56 20.283 57.958 20.283 32.203 0 59.032-17.048 59.032-48.338m-124.5-72.937v-33.666h-112.7v33.666h37.565v119.98h37.568v-119.98zm-134.59-33.666h-37.565v153.65h37.565zm-65.895 99.696v-99.696h-37.565v98.834c0 14.246-8.1574 22.444-20.608 22.444-12.451 0-20.179-8.1985-20.179-22.444v-98.834h-37.565v99.696c0 33.666 25.973 55.244 57.743 55.244 31.767 0 58.173-21.578 58.173-55.244m-138.03 6.9063c0-14.242-3.2162-25.679-11.374-33.663-6.4419-6.4767-16.315-10.789-30.055-12.732l-18.457-2.5907c-5.3677-0.64451-8.5871-2.5875-10.521-4.5305-2.36-2.3758-3.0077-5.1782-3.0077-7.1212 0-6.6915 5.3677-14.242 18.463-14.242 6.6536 0 19.319-0.64767 28.981 9.061l23.61-23.736c-13.092-13.162-29.625-18.34-51.52-18.34-34.772 0-55.807 20.501-55.807 48.553 0 13.165 3.431 23.518 10.514 30.857 6.8716 7.1212 17.171 11.652 30.699 13.595l18.46 2.5875c4.9349 0.65082 8.1543 2.161 10.088 4.104 2.1484 2.3727 3.0045 5.3962 3.0045 9.061 0 8.8494-7.0833 13.813-21.894 13.813-12.236 0-26.188-2.8055-34.13-10.789l-24.043 24.169c15.456 15.967 34.56 20.283 57.955 20.283 32.203 0 59.032-17.048 59.032-48.338" fill="#c51e25"/>
</svg>
